<svg xmlns="http://www.w3.org/2000/svg" width="26.158" height="24" viewBox="0 0 26.158 24">
  <path id="Icon_material-favorite-border" data-name="Icon material-favorite-border" d="M21.965,4.5a7.832,7.832,0,0,0-5.886,2.734A7.832,7.832,0,0,0,10.193,4.5,7.124,7.124,0,0,0,3,11.693c0,4.944,4.447,8.972,11.183,15.093l1.9,1.713,1.9-1.726c6.736-6.108,11.183-10.136,11.183-15.08A7.124,7.124,0,0,0,21.965,4.5ZM16.21,24.838l-.131.131-.131-.131C9.723,19.2,5.616,15.473,5.616,11.693a4.47,4.47,0,0,1,4.578-4.578A5.113,5.113,0,0,1,14.863,10.2h2.446a5.081,5.081,0,0,1,4.656-3.087,4.47,4.47,0,0,1,4.578,4.578C26.542,15.473,22.435,19.2,16.21,24.838Z" transform="translate(-3 -4.5)" fill="#343434"/>
</svg>
