<svg xmlns="http://www.w3.org/2000/svg" width="24.422" height="22.407" viewBox="0 0 24.422 22.407">
  <path id="Icon_material-favorite-border" data-name="Icon material-favorite-border" d="M20.706,4.5a7.312,7.312,0,0,0-5.495,2.552A7.312,7.312,0,0,0,9.716,4.5,6.651,6.651,0,0,0,3,11.216c0,4.616,4.152,8.377,10.44,14.091l1.771,1.6L16.981,25.3c6.289-5.7,10.44-9.463,10.44-14.079A6.651,6.651,0,0,0,20.706,4.5ZM15.333,23.488l-.122.122-.122-.122c-5.812-5.263-9.647-8.743-9.647-12.272A4.173,4.173,0,0,1,9.716,6.942a4.774,4.774,0,0,1,4.359,2.882h2.283a4.743,4.743,0,0,1,4.347-2.882,4.173,4.173,0,0,1,4.274,4.274C24.98,14.745,21.145,18.225,15.333,23.488Z" transform="translate(-3 -4.5)" fill="#343434"/>
</svg>
