<svg id="shopping_bag_line" data-name="shopping bag line" xmlns="http://www.w3.org/2000/svg" width="28.304" height="28.304" viewBox="0 0 28.304 28.304">
  <path id="Контур_10" data-name="Контур 10" d="M21.84,10.555V8.237a5.5,5.5,0,1,0-11,0v5.5a.784.784,0,1,0,1.568,0v-1.61H18.7V10.555H12.406V8.237a3.933,3.933,0,0,1,7.866,0V13.7a.784.784,0,1,0,1.568,0V12.129h3.933V26.281H6.9V12.129H9.263V10.555H5.33v15.8a1.5,1.5,0,0,0,1.5,1.5H25.844a1.5,1.5,0,0,0,1.5-1.5v-15.8Z" transform="translate(-2.187 -1.12)" fill="#343434"/>
  <path id="Контур_11" data-name="Контур 11" d="M0,0H28.3V28.3H0Z" fill="none"/>
  <path id="Контур_12" data-name="Контур 12" d="M0,0H28.3V28.3H0Z" fill="none"/>
</svg>
