<svg xmlns="http://www.w3.org/2000/svg" width="149.71" height="148.936" viewBox="0 0 149.71 148.936">
  <g id="bx-package" transform="translate(-4 -4.112)">
    <path id="Контур_32" data-name="Контур 32" d="M153.655,48.589a5.687,5.687,0,0,0,0-1.571v-.6a5.763,5.763,0,0,0-.524-1.2,2.618,2.618,0,0,0-.374-.6l-.748-.973-.6-.449-.9-.673L83.168,5.115a7.483,7.483,0,0,0-7.483,0L8.34,42.528l-.673.524-.823.6a3.068,3.068,0,0,0-.524.823,2.918,2.918,0,0,0-.6.748,4.415,4.415,0,0,0-.449,1.048,2.245,2.245,0,0,0,0,.748A5.687,5.687,0,0,0,4,48.589v59.862a7.483,7.483,0,0,0,3.891,6.51l67.345,37.414a5.612,5.612,0,0,0,.973.449h.748a7.932,7.932,0,0,0,3.741,0h.748l1.048-.449,67.345-37.414a7.483,7.483,0,0,0,3.816-6.51ZM78.828,77.548,26.9,48.589,47.55,37.216,98.657,66.4Zm0-57.767,51.93,28.809L114,57.943,62.889,28.685ZM18.966,61.31,71.345,90.643v42.5L18.966,104.037ZM86.31,133.145v-42.5l22.448-12.571v22.9l14.966-7.483v-23.8l14.966-8.306v42.652Z" transform="translate(0)"/>
  </g>
</svg>
