<svg xmlns="http://www.w3.org/2000/svg" width="21.073" height="26.176" viewBox="0 0 21.073 26.176">
  <g id="_83c91ea82ef37f26e03b1f092a1eb3bd" data-name="83c91ea82ef37f26e03b1f092a1eb3bd" transform="translate(1 1)">
    <circle id="Эллипс_30" data-name="Эллипс 30" cx="6.009" cy="6.009" r="6.009" transform="translate(3.523 0)" fill="none" stroke="#fff" stroke-linecap="round" stroke-linejoin="round" stroke-width="2"/>
    <path id="Контур_37" data-name="Контур 37" d="M0,16.979a2.786,2.786,0,0,1,.276-1.22c.576-1.151,2.2-1.761,3.546-2.038a21.113,21.113,0,0,1,2.947-.414,31.508,31.508,0,0,1,5.514,0,21.355,21.355,0,0,1,2.947.414c1.347.276,2.97.829,3.546,2.038a2.855,2.855,0,0,1,0,2.452c-.576,1.209-2.2,1.761-3.546,2.026a19.765,19.765,0,0,1-2.947.426,32.475,32.475,0,0,1-4.49.069,5.113,5.113,0,0,1-1.025-.069,19.4,19.4,0,0,1-2.936-.426C2.475,19.972.863,19.419.276,18.21A2.867,2.867,0,0,1,0,16.979Z" transform="translate(0 3.398)" fill="none" stroke="#fff" stroke-linecap="round" stroke-linejoin="round" stroke-width="2" fill-rule="evenodd"/>
  </g>
</svg>
